<?xml version="1.0" encoding="utf-8"?>
<!-- Generator: Adobe Illustrator 19.2.1, SVG Export Plug-In . SVG Version: 6.00 Build 0)  -->
<svg xmlns="http://www.w3.org/2000/svg" xmlns:xlink="http://www.w3.org/1999/xlink" version="1.1" id="Layer" x="0px" y="0px" width="512" height="512" viewBox="0 0 64 64" enable-background="new 0 0 64 64" xml:space="preserve">
<path fill="#CCE4FF" d="M32,18c-7.73,0-14,6.27-14,14h1h7h1c0-2.76,2.24-5,5-5c1.04,0,2,0.32,2.79,0.86  c0.27,0.18,0.51,0.38,0.74,0.61C36.44,29.37,37,30.62,37,32c0,2.76-2.24,5-5,5v1v7v1c0.01,0-0.01,0,0,0c7.73,0,14-6.27,14-14  c0-3.87-1.57-7.37-4.09-9.91C39.37,19.57,35.87,18,32,18z"/>
<path fill="#007AFF" d="M52,32c0,11.028-8.972,20-20,20c-11.028,0-20-8.972-20-20s8.972-20,20-20h2V8h-2C18.766,8,8,18.767,8,32  s10.766,24,24,24c13.233,0,24-10.767,24-24v-2h-4V32z"/>
<path fill="#007AFF" d="M42,12h7.172l-7.363,7.363C39.004,17.19,35.592,16,32,16c-8.822,0-16,7.178-16,16c0,8.8,7.162,15.978,16,16  c8.822,0,16-7.178,16-16c0-3.592-1.19-7.004-3.363-9.808L52,14.828V22h4V8H42V12z M32,20c2.523,0,4.926,0.785,6.951,2.221  l-3.638,3.638C34.298,25.305,33.17,25,32,25c-3.165,0-5.842,2.112-6.705,5h-5.114C21.137,24.334,26.066,20,32,20z M32,35  c-1.654,0-3-1.346-3-3s1.346-3,3-3c0.597,0,1.172,0.177,1.681,0.524c0.153,0.103,0.293,0.218,0.443,0.367  C34.688,30.45,35,31.199,35,32C35,33.654,33.654,35,32,35z M20.181,34h5.114c0.674,2.253,2.452,4.032,4.705,4.705v5.113  C24.988,42.969,21.029,39.009,20.181,34z M44,32c0,5.928-4.325,10.853-10,11.817v-5.112c2.888-0.863,5-3.541,5-6.705  c0-1.185-0.293-2.322-0.842-3.33l3.621-3.621C43.215,27.074,44,29.477,44,32z"/>
</svg>
